<svg width="49" height="49" viewBox="0 0 49 49" fill="none" xmlns="http://www.w3.org/2000/svg">
<g clip-path="url(#clip0_14_2670)">
<path fill-rule="evenodd" clip-rule="evenodd" d="M24.7318 0.5C11.4494 0.5 0.711914 11.3167 0.711914 24.6983C0.711914 35.395 7.5918 44.4495 17.136 47.6542C18.3293 47.8951 18.7664 47.1335 18.7664 46.4929C18.7664 45.9319 18.7271 44.009 18.7271 42.0055C12.0453 43.448 10.6539 39.1209 10.6539 39.1209C9.5801 36.3164 7.98906 35.5956 7.98906 35.5956C5.80213 34.1132 8.14837 34.1132 8.14837 34.1132C10.5742 34.2735 11.8472 36.5971 11.8472 36.5971C13.9943 40.2827 17.4541 39.2413 18.846 38.6002C19.0447 37.0377 19.6814 35.956 20.3574 35.3552C15.0282 34.7942 9.42129 32.711 9.42129 23.4161C9.42129 20.7719 10.3751 18.6086 11.8865 16.9261C11.648 16.3253 10.8127 13.8409 12.1255 10.5157C12.1255 10.5157 14.1536 9.8746 18.7266 12.9996C20.6844 12.4699 22.7035 12.2005 24.7318 12.1982C26.7599 12.1982 28.8274 12.479 30.7365 12.9996C35.31 9.8746 37.3381 10.5157 37.3381 10.5157C38.6508 13.8409 37.815 16.3253 37.5765 16.9261C39.1278 18.6086 40.0423 20.7719 40.0423 23.4161C40.0423 32.711 34.4353 34.7539 29.0663 35.3552C29.9415 36.1163 30.6967 37.5583 30.6967 39.8421C30.6967 43.0871 30.6573 45.6915 30.6573 46.4924C30.6573 47.1335 31.0949 47.8951 32.2877 47.6547C41.8319 44.4491 48.7118 35.395 48.7118 24.6983C48.7511 11.3167 37.9743 0.5 24.7318 0.5Z" fill="#FFF2AA"/>
</g>
<defs>
<clipPath id="clip0_14_2670">
<rect width="48" height="48" fill="white" transform="translate(0.711914 0.5)"/>
</clipPath>
</defs>
</svg>
