<svg width="49" height="49" viewBox="0 0 49 49" fill="none" xmlns="http://www.w3.org/2000/svg">
<g clip-path="url(#clip0_14_2679)">
<path d="M24.7119 4.82187C31.1244 4.82187 31.8838 4.85 34.4057 4.9625C36.7494 5.06562 38.015 5.45938 38.8588 5.7875C39.9744 6.21875 40.7807 6.74375 41.615 7.57812C42.4588 8.42188 42.9744 9.21875 43.4057 10.3344C43.7338 11.1781 44.1275 12.4531 44.2307 14.7875C44.3432 17.3187 44.3713 18.0781 44.3713 24.4813C44.3713 30.8938 44.3432 31.6531 44.2307 34.175C44.1275 36.5188 43.7338 37.7844 43.4057 38.6281C42.9744 39.7438 42.4494 40.55 41.615 41.3844C40.7713 42.2281 39.9744 42.7438 38.8588 43.175C38.015 43.5031 36.74 43.8969 34.4057 44C31.8744 44.1125 31.115 44.1406 24.7119 44.1406C18.2994 44.1406 17.54 44.1125 15.0182 44C12.6744 43.8969 11.4088 43.5031 10.565 43.175C9.44941 42.7438 8.64316 42.2188 7.80879 41.3844C6.96504 40.5406 6.44941 39.7438 6.01816 38.6281C5.69004 37.7844 5.29629 36.5094 5.19316 34.175C5.08066 31.6438 5.05254 30.8844 5.05254 24.4813C5.05254 18.0688 5.08066 17.3094 5.19316 14.7875C5.29629 12.4437 5.69004 11.1781 6.01816 10.3344C6.44941 9.21875 6.97441 8.4125 7.80879 7.57812C8.65254 6.73438 9.44941 6.21875 10.565 5.7875C11.4088 5.45938 12.6838 5.06562 15.0182 4.9625C17.54 4.85 18.2994 4.82187 24.7119 4.82187ZM24.7119 0.5C18.1963 0.5 17.3807 0.528125 14.8213 0.640625C12.2713 0.753125 10.5182 1.16562 8.99941 1.75625C7.41504 2.375 6.07441 3.19062 4.74316 4.53125C3.40254 5.8625 2.58691 7.20313 1.96816 8.77813C1.37754 10.3063 0.965039 12.05 0.852539 14.6C0.740039 17.1687 0.711914 17.9844 0.711914 24.5C0.711914 31.0156 0.740039 31.8312 0.852539 34.3906C0.965039 36.9406 1.37754 38.6938 1.96816 40.2125C2.58691 41.7969 3.40254 43.1375 4.74316 44.4688C6.07441 45.8 7.41504 46.625 8.99004 47.2344C10.5182 47.825 12.2619 48.2375 14.8119 48.35C17.3713 48.4625 18.1869 48.4906 24.7025 48.4906C31.2182 48.4906 32.0338 48.4625 34.5932 48.35C37.1432 48.2375 38.8963 47.825 40.415 47.2344C41.99 46.625 43.3307 45.8 44.6619 44.4688C45.9932 43.1375 46.8182 41.7969 47.4275 40.2219C48.0182 38.6938 48.4307 36.95 48.5432 34.4C48.6557 31.8406 48.6838 31.025 48.6838 24.5094C48.6838 17.9938 48.6557 17.1781 48.5432 14.6188C48.4307 12.0688 48.0182 10.3156 47.4275 8.79688C46.8369 7.20312 46.0213 5.8625 44.6807 4.53125C43.3494 3.2 42.0088 2.375 40.4338 1.76562C38.9057 1.175 37.1619 0.7625 34.6119 0.65C32.0432 0.528125 31.2275 0.5 24.7119 0.5Z" fill="#FFF2AA"/>
<path d="M24.7119 12.1719C17.9057 12.1719 12.3838 17.6938 12.3838 24.5C12.3838 31.3062 17.9057 36.8281 24.7119 36.8281C31.5182 36.8281 37.04 31.3062 37.04 24.5C37.04 17.6938 31.5182 12.1719 24.7119 12.1719ZM24.7119 32.4969C20.2963 32.4969 16.715 28.9156 16.715 24.5C16.715 20.0844 20.2963 16.5031 24.7119 16.5031C29.1275 16.5031 32.7088 20.0844 32.7088 24.5C32.7088 28.9156 29.1275 32.4969 24.7119 32.4969Z" fill="#FFF2AA"/>
<path d="M40.4057 11.6843C40.4057 13.278 39.1119 14.5624 37.5275 14.5624C35.9338 14.5624 34.6494 13.2687 34.6494 11.6843C34.6494 10.0905 35.9432 8.80615 37.5275 8.80615C39.1119 8.80615 40.4057 10.0999 40.4057 11.6843Z" fill="#FFF2AA"/>
</g>
<defs>
<clipPath id="clip0_14_2679">
<rect width="48" height="48" fill="white" transform="translate(0.711914 0.5)"/>
</clipPath>
</defs>
</svg>
