<svg width="49" height="49" viewBox="0 0 49 49" fill="none" xmlns="http://www.w3.org/2000/svg">
<g clip-path="url(#clip0_14_2675)">
<path d="M45.1588 0.5H4.25566C2.29629 0.5 0.711914 2.04688 0.711914 3.95938V45.0312C0.711914 46.9437 2.29629 48.5 4.25566 48.5H45.1588C47.1182 48.5 48.7119 46.9438 48.7119 45.0406V3.95938C48.7119 2.04688 47.1182 0.5 45.1588 0.5ZM14.9525 41.4031H7.82754V18.4906H14.9525V41.4031ZM11.39 15.3688C9.10254 15.3688 7.25566 13.5219 7.25566 11.2437C7.25566 8.96562 9.10254 7.11875 11.39 7.11875C13.6682 7.11875 15.515 8.96562 15.515 11.2437C15.515 13.5125 13.6682 15.3688 11.39 15.3688ZM41.615 41.4031H34.4994V30.2656C34.4994 27.6125 34.4525 24.1906 30.7963 24.1906C27.0932 24.1906 26.5307 27.0875 26.5307 30.0781V41.4031H19.4244V18.4906H26.2494V21.6219H26.3432C27.29 19.8219 29.615 17.9188 33.0744 17.9188C40.2838 17.9188 41.615 22.6625 41.615 28.8313V41.4031Z" fill="#FFF2AA"/>
</g>
<defs>
<clipPath id="clip0_14_2675">
<rect width="48" height="48" fill="white" transform="translate(0.711914 0.5)"/>
</clipPath>
</defs>
</svg>
